<svg width="22" height="11" viewBox="0 0 22 11" fill="none" xmlns="http://www.w3.org/2000/svg">
<path d="M16.5 0C17.9587 0 19.3576 0.579462 20.3891 1.61091C21.4205 2.64236 22 4.04131 22 5.5C22 6.95869 21.4205 8.35764 20.3891 9.38909C19.3576 10.4205 17.9587 11 16.5 11C14.79 11 13.27 10.22 12.26 9H9.74C8.73 10.22 7.21 11 5.5 11C4.04131 11 2.64236 10.4205 1.61091 9.38909C0.579463 8.35764 0 6.95869 0 5.5C0 4.04131 0.579463 2.64236 1.61091 1.61091C2.64236 0.579462 4.04131 0 5.5 0H16.5ZM5.5 2C4.57174 2 3.6815 2.36875 3.02513 3.02513C2.36875 3.6815 2 4.57174 2 5.5C2 6.42826 2.36875 7.3185 3.02513 7.97487C3.6815 8.63125 4.57174 9 5.5 9C6.9 9 8.1 8.18 8.66 7H13.34C13.9 8.18 15.1 9 16.5 9C17.4283 9 18.3185 8.63125 18.9749 7.97487C19.6313 7.3185 20 6.42826 20 5.5C20 4.57174 19.6313 3.6815 18.9749 3.02513C18.3185 2.36875 17.4283 2 16.5 2H5.5ZM4.75 3.25H6.25V4.75H7.75V6.25H6.25V7.75H4.75V6.25H3.25V4.75H4.75V3.25ZM15.75 5.5C16.0152 5.5 16.2696 5.60536 16.4571 5.79289C16.6446 5.98043 16.75 6.23478 16.75 6.5C16.75 6.76522 16.6446 7.01957 16.4571 7.20711C16.2696 7.39464 16.0152 7.5 15.75 7.5C15.4848 7.5 15.2304 7.39464 15.0429 7.20711C14.8554 7.01957 14.75 6.76522 14.75 6.5C14.75 6.23478 14.8554 5.98043 15.0429 5.79289C15.2304 5.60536 15.4848 5.5 15.75 5.5ZM17.75 3.5C18.0152 3.5 18.2696 3.60536 18.4571 3.79289C18.6446 3.98043 18.75 4.23478 18.75 4.5C18.75 4.76522 18.6446 5.01957 18.4571 5.20711C18.2696 5.39464 18.0152 5.5 17.75 5.5C17.4848 5.5 17.2304 5.39464 17.0429 5.20711C16.8554 5.01957 16.75 4.76522 16.75 4.5C16.75 4.23478 16.8554 3.98043 17.0429 3.79289C17.2304 3.60536 17.4848 3.5 17.75 3.5Z" fill="#B5B7BC"/>
</svg>
