<svg width="20" height="21" viewBox="0 0 20 21" fill="none" xmlns="http://www.w3.org/2000/svg">
<path d="M0.34 12.635C0.94 12.415 1.56 12.305 2.22 12.305C3.56 12.305 4.73 12.725 5.73 13.565L2.59 16.705C1.53 15.505 0.78 14.135 0.34 12.635ZM13.56 7.80496C15.53 9.27496 17.66 9.63496 19.94 8.88496C19.97 9.09496 20 9.47496 20 10.005C20 11.035 19.75 12.185 19.28 13.455C18.81 14.715 18.23 15.735 17.55 16.505L11.22 10.195L13.56 7.80496ZM6.77 14.645C7.83 16.175 8.05 17.845 7.42 19.665C6 19.255 4.73 18.615 3.67 17.735L6.77 14.645ZM10.19 11.225L16.5 17.555C14.33 19.455 11.78 20.255 8.88 19.945C9.09 19.285 9.2 18.565 9.2 17.785C9.2 17.165 9.06 16.435 8.78 15.605C8.5 14.775 8.17 14.095 7.8 13.565L10.19 11.225ZM6.81 12.505C5.88 11.675 4.8 11.155 3.58 10.915C2.36 10.685 1.19 10.755 0.0599999 11.135C0.0299999 10.915 0 10.535 0 10.005C0 8.97496 0.25 7.82496 0.72 6.55496C1.19 5.29496 1.77 4.27496 2.45 3.50496L9.11 10.195L6.81 12.505ZM13.56 5.73496C12.22 4.08496 11.91 2.28496 12.63 0.34496C13.25 0.50496 13.96 0.80496 14.76 1.26496C15.55 1.71496 16.2 2.16496 16.7 2.59496L13.56 5.73496ZM19.66 7.38496C19.06 7.59496 18.44 7.70496 17.78 7.70496C16.69 7.70496 15.64 7.38496 14.64 6.72496L17.73 3.67496C18.61 4.77496 19.25 6.00496 19.66 7.38496ZM10.19 9.11496L3.5 2.45496C5.67 0.55496 8.22 -0.24504 11.13 0.0649597C10.91 0.72496 10.8 1.44496 10.8 2.22496C10.8 2.94496 10.96 3.75496 11.29 4.66496C11.62 5.56496 12 6.28496 12.5 6.81496L10.19 9.11496Z" fill="#B5B7BC"/>
</svg>
