<svg width="20" height="20" viewBox="0 0 20 20" fill="none" xmlns="http://www.w3.org/2000/svg">
<path d="M10 0C8.68678 0 7.38642 0.258658 6.17317 0.761205C4.95991 1.26375 3.85752 2.00035 2.92893 2.92893C1.05357 4.8043 0 7.34784 0 10C0 12.6522 1.05357 15.1957 2.92893 17.0711C3.85752 17.9997 4.95991 18.7362 6.17317 19.2388C7.38642 19.7413 8.68678 20 10 20C12.6522 20 15.1957 18.9464 17.0711 17.0711C18.9464 15.1957 20 12.6522 20 10C20 8.68678 19.7413 7.38642 19.2388 6.17317C18.7362 4.95991 17.9997 3.85752 17.0711 2.92893C16.1425 2.00035 15.0401 1.26375 13.8268 0.761205C12.6136 0.258658 11.3132 0 10 0ZM10 6.39C11.57 7.4 13.42 8 15.42 8C16.2 8 16.95 7.91 17.67 7.74C17.88 8.45 18 9.21 18 10C18 14.41 14.41 18 10 18C7 18 4.39 16.34 3 13.89L4.75 12V11C4.75 10.6685 4.8817 10.3505 5.11612 10.1161C5.35054 9.8817 5.66848 9.75 6 9.75C6.33152 9.75 6.64946 9.8817 6.88388 10.1161C7.1183 10.3505 7.25 10.6685 7.25 11V12H10M14 9.75C13.6685 9.75 13.3505 9.8817 13.1161 10.1161C12.8817 10.3505 12.75 10.6685 12.75 11C12.75 11.3315 12.8817 11.6495 13.1161 11.8839C13.3505 12.1183 13.6685 12.25 14 12.25C14.3315 12.25 14.6495 12.1183 14.8839 11.8839C15.1183 11.6495 15.25 11.3315 15.25 11C15.25 10.6685 15.1183 10.3505 14.8839 10.1161C14.6495 9.8817 14.3315 9.75 14 9.75Z" fill="white"/>
</svg>
